<svg width="389" height="395" viewBox="0 0 389 395" fill="none" xmlns="http://www.w3.org/2000/svg">
<g clip-path="url(#clip0_264_7)">
<path fill-rule="evenodd" clip-rule="evenodd" d="M341.585 231.284C341.293 230.865 340.871 231.017 341.134 229.203C342.118 226.231 340.865 229.761 340.981 229.256C341.126 230.133 341.663 229.706 341.992 229.659C341.891 230.052 341.755 230.686 341.585 231.284Z" fill="#1A1A1A"/>
<path fill-rule="evenodd" clip-rule="evenodd" d="M354.949 396.385C359.16 393.668 362.999 390.915 366.697 388.602C370.398 393.232 374.336 398.482 378.096 403.836C374.653 406.866 370.984 409.822 367.024 413.216C363.149 407.562 359.01 401.944 354.949 396.385Z" fill="#1A1A1A"/>
<path fill-rule="evenodd" clip-rule="evenodd" d="M368.46 387.474C371.982 385.38 375.164 383.151 378.321 381.331C381.831 385.464 385.195 389.762 388.78 394.38C385.962 396.841 382.86 399.351 379.748 402.139C376.027 397.25 372.17 392.071 368.46 387.474Z" fill="#1A1A1A"/>
<path fill-rule="evenodd" clip-rule="evenodd" d="M167.458 364.833C180.023 362.183 191.569 359.572 202.443 357.086C206.634 363.857 210.912 370.323 214.918 377.262C204.37 380.203 192.732 383.993 179.846 387.854C175.653 379.863 171.59 372.304 167.457 364.833H167.458Z" fill="#1A1A1A"/>
<path fill-rule="evenodd" clip-rule="evenodd" d="M239.92 357.187C248.692 355.239 256.41 353.317 264.091 351.865C267.858 356.975 271.96 362.269 276.05 367.818C268.556 370.099 260.689 372.548 252.236 375.257C248.298 369.171 244.01 362.92 239.92 357.185V357.187Z" fill="#1A1A1A"/>
<path fill-rule="evenodd" clip-rule="evenodd" d="M250.241 317.411C257.227 317.13 263.764 316.707 270.071 316.371C273.619 320.253 277.092 324.038 280.431 327.972C274.313 328.529 267.817 329.236 260.906 330.248C257.457 325.815 254.014 321.521 250.241 317.411Z" fill="#1A1A1A"/>
<path fill-rule="evenodd" clip-rule="evenodd" d="M301.982 398.755C308.612 395.358 314.654 392.388 320.382 389.551C324.331 395.173 328.498 400.991 332.686 406.909C327.185 410.662 321.163 414.8 314.821 419.153C310.469 411.81 306.272 405.315 301.982 398.753V398.755Z" fill="#1A1A1A"/>
<path fill-rule="evenodd" clip-rule="evenodd" d="M323.914 387.482C329.208 385.036 334.207 382.652 338.941 380.279C342.719 385.129 346.513 390.247 350.312 395.506C345.831 398.615 341.141 401.585 336.022 404.55C332.054 398.927 327.952 393.173 323.914 387.483V387.482Z" fill="#1A1A1A"/>
<path fill-rule="evenodd" clip-rule="evenodd" d="M341.679 378.89C345.982 376.454 350.101 374.656 354.187 372.875C357.743 377.41 361.392 382.043 365.143 386.725C361.278 388.898 357.237 391.42 353.164 394.22C349.391 389.038 345.449 383.844 341.679 378.89Z" fill="#1A1A1A"/>
<path fill-rule="evenodd" clip-rule="evenodd" d="M355.975 372.377C359.606 370.616 363.191 368.96 366.681 367.495C369.772 371.401 373.042 375.294 376.269 379.188C373.1 381.153 369.744 383.269 366.342 385.538C362.841 381.08 359.306 376.619 355.977 372.377H355.975Z" fill="#1A1A1A"/>
<path fill-rule="evenodd" clip-rule="evenodd" d="M379.041 361.663C381.926 360.614 384.444 359.439 386.946 358.282C389.637 361.319 392.436 364.508 395.014 367.513C392.742 368.982 390.532 370.563 387.821 371.955C384.978 368.529 382.04 365.068 379.041 361.662V361.663Z" fill="#1A1A1A"/>
<path fill-rule="evenodd" clip-rule="evenodd" d="M388.275 357.739C390.705 356.586 392.899 355.438 395.058 354.589C397.565 357.314 399.884 359.967 402.478 362.912C400.501 364.2 398.466 365.445 396.362 366.87C393.606 363.777 391.017 360.732 388.275 357.739Z" fill="#1A1A1A"/>
<path fill-rule="evenodd" clip-rule="evenodd" d="M284.364 335.754C290.212 334.949 295.785 334.261 301.194 333.413C304.567 337.467 307.966 341.377 311.543 345.446C306.388 346.534 300.901 347.562 295.057 349.007C291.467 344.473 287.868 340.108 284.363 335.754H284.364Z" fill="#1A1A1A"/>
<path fill-rule="evenodd" clip-rule="evenodd" d="M287.502 297.494C292.545 297.758 297.334 297.99 301.895 298.206C304.708 301 307.491 303.832 310.361 306.537C305.799 306.564 301.233 306.5 296.321 306.433C293.472 303.408 290.457 300.451 287.504 297.494H287.502Z" fill="#1A1A1A"/>
<path fill-rule="evenodd" clip-rule="evenodd" d="M262.241 385.321C270.361 382.299 278.091 379.611 285.257 376.966C289.431 382.944 293.685 389.282 297.822 395.69C290.972 399.2 283.427 402.764 275.717 406.37C271.225 399.311 266.742 392.045 262.242 385.323L262.241 385.321Z" fill="#1A1A1A"/>
<path fill-rule="evenodd" clip-rule="evenodd" d="M311.518 368.37C317.129 366.469 322.249 364.732 327.123 362.944C330.658 367.302 334.356 372.035 337.904 376.902C333.262 379.146 328.181 381.528 323.05 383.989C319.342 378.582 315.347 373.284 311.517 368.37H311.518Z" fill="#1A1A1A"/>
<path fill-rule="evenodd" clip-rule="evenodd" d="M329.908 362.08C334.555 360.518 338.908 359.139 343.08 357.878C346.575 362.008 349.967 366.201 353.462 370.371C349.493 372.067 345.449 373.772 341.075 375.893C337.285 371.023 333.654 366.333 329.908 362.08Z" fill="#1A1A1A"/>
<path fill-rule="evenodd" clip-rule="evenodd" d="M344.878 357.419C348.746 356.17 352.499 354.941 356.182 353.693C359.25 357.333 362.319 360.912 365.456 364.624C362.064 366.144 358.482 367.85 354.837 369.494C351.425 365.376 348.056 361.307 344.88 357.417L344.878 357.419Z" fill="#1A1A1A"/>
<path fill-rule="evenodd" clip-rule="evenodd" d="M358.615 352.953C361.915 351.957 365.148 351 368.101 350.047C371.186 353.488 374.114 356.69 377.003 360.131C374.234 361.224 371.253 362.464 367.989 364.025C364.911 360.108 361.667 356.438 358.615 352.953Z" fill="#1A1A1A"/>
<path fill-rule="evenodd" clip-rule="evenodd" d="M369.548 349.739C372.549 348.911 375.237 347.963 377.939 347.185C380.586 350.047 383.285 353.124 385.801 356.104C383.36 357.173 380.851 358.361 377.938 359.35C375.233 356.257 372.361 352.907 369.55 349.739H369.548Z" fill="#1A1A1A"/>
<path fill-rule="evenodd" clip-rule="evenodd" d="M379.378 346.722C381.964 346.025 384.398 345.421 386.696 344.749C389.122 347.397 391.617 350.003 393.92 352.596C391.816 353.397 389.51 354.341 387.221 355.473C384.662 352.471 382.027 349.616 379.378 346.722Z" fill="#1A1A1A"/>
<path fill-rule="evenodd" clip-rule="evenodd" d="M387.755 344.417C389.946 343.813 392.043 343.173 394.048 342.471C396.29 344.888 398.553 347.297 400.666 349.646C398.9 350.494 396.951 351.335 394.95 352.124C392.555 349.587 390.188 346.978 387.754 344.417H387.755Z" fill="#1A1A1A"/>
<path fill-rule="evenodd" clip-rule="evenodd" d="M321.945 331.28C326.327 330.832 330.546 330.492 334.591 330.049C337.583 333.273 340.633 336.576 343.677 339.832C339.774 340.488 335.876 341.273 331.501 342.16C328.309 338.463 325.151 334.786 321.945 331.28Z" fill="#1A1A1A"/>
<path fill-rule="evenodd" clip-rule="evenodd" d="M336.43 329.756C340.244 329.276 343.971 328.951 347.319 328.504C350.251 331.517 353.15 334.598 355.872 337.615C352.558 338.259 349.138 338.908 345.445 339.5C342.513 336.339 339.422 332.97 336.43 329.756Z" fill="#1A1A1A"/>
<path fill-rule="evenodd" clip-rule="evenodd" d="M348.98 328.319C352.46 327.984 355.579 327.687 358.606 327.396C361.227 330.061 363.976 332.918 366.593 335.654C363.683 336.203 360.673 336.758 357.504 337.431C354.747 334.317 351.838 331.244 348.98 328.319Z" fill="#1A1A1A"/>
<path fill-rule="evenodd" clip-rule="evenodd" d="M360.034 327.231C362.996 326.947 365.808 326.775 368.494 326.527C370.952 329.012 373.567 331.761 375.94 334.206C373.384 334.638 370.703 334.958 367.957 335.391C365.449 332.77 362.653 329.913 360.032 327.231H360.034Z" fill="#1A1A1A"/>
<path fill-rule="evenodd" clip-rule="evenodd" d="M369.808 326.43C372.399 326.142 374.822 325.79 377.253 325.694C379.537 327.97 381.877 330.34 384.186 332.788C382.007 333.165 379.687 333.596 377.186 334.061C374.779 331.488 372.227 328.911 369.808 326.43Z" fill="#1A1A1A"/>
<path fill-rule="evenodd" clip-rule="evenodd" d="M378.379 325.654C380.644 325.438 382.732 325.238 384.851 325.098C387.081 327.255 389.321 329.475 391.258 331.536C389.4 331.908 387.411 332.293 385.214 332.569C382.979 330.18 380.754 327.923 378.381 325.654H378.379Z" fill="#1A1A1A"/>
<path fill-rule="evenodd" clip-rule="evenodd" d="M385.804 325.026C387.834 324.819 389.813 324.686 391.585 324.494C393.633 326.491 395.65 328.551 397.644 330.541C395.974 330.933 394.06 331.132 392.262 331.398C390.16 329.314 388.078 327.184 385.804 325.028V325.026Z" fill="#1A1A1A"/>
<path fill-rule="evenodd" clip-rule="evenodd" d="M388.91 312.745C385.816 312.477 382.686 312.485 379.278 312.329C378.639 312.27 377.917 312.216 377.17 311.989C380.729 312.329 383.989 312.253 387.135 312.442C387.876 312.718 388.44 312.619 388.91 312.747V312.745Z" fill="#1A1A1A"/>
<path fill-rule="evenodd" clip-rule="evenodd" d="M326.895 319.187C330.841 318.935 334.757 318.795 338.293 318.566C341.126 321.407 343.926 324.296 346.659 327.237C343.163 327.589 339.437 327.929 335.727 328.361C332.801 325.196 329.775 322.055 326.897 319.185L326.895 319.187Z" fill="#1A1A1A"/>
<path fill-rule="evenodd" clip-rule="evenodd" d="M340.013 318.467C343.544 318.411 346.897 318.339 350.044 318.204C352.598 320.829 355.407 323.578 357.881 326.199C354.903 326.492 351.669 326.719 348.329 326.992C345.624 324.13 342.773 321.238 340.013 318.469V318.467Z" fill="#1A1A1A"/>
<path fill-rule="evenodd" clip-rule="evenodd" d="M351.56 318.191C354.678 318.115 357.608 318.12 360.498 318.051C362.953 320.391 365.401 322.881 367.778 325.446C365.064 325.593 362.256 325.79 359.329 326.133C356.893 323.524 354.123 320.763 351.558 318.19L351.56 318.191Z" fill="#1A1A1A"/>
<path fill-rule="evenodd" clip-rule="evenodd" d="M361.845 317.967C364.598 317.911 367.164 317.96 369.655 317.879C372.01 320.14 374.3 322.393 376.526 324.63C374.181 324.734 371.727 325.029 369.098 325.315C366.702 322.866 364.255 320.337 361.845 317.967Z" fill="#1A1A1A"/>
<path fill-rule="evenodd" clip-rule="evenodd" d="M370.856 317.822C373.324 317.87 375.472 317.754 377.722 317.775C379.941 319.92 382.098 321.985 384.188 324.086C382.112 324.273 379.946 324.45 377.651 324.593C375.426 322.317 373.163 320.164 370.856 317.822Z" fill="#1A1A1A"/>
<path fill-rule="evenodd" clip-rule="evenodd" d="M378.752 317.699C380.956 317.674 382.952 317.667 384.946 317.595C386.99 319.571 388.967 321.524 390.953 323.517C389.172 323.861 387.24 323.948 385.217 324.089C383.047 321.931 381.011 319.847 378.751 317.699H378.752Z" fill="#1A1A1A"/>
<path fill-rule="evenodd" clip-rule="evenodd" d="M385.876 317.618C387.736 317.618 389.628 317.702 391.24 317.658C393.107 319.407 395.02 321.279 396.909 323.072C395.286 323.168 393.615 323.304 391.851 323.512C389.943 321.532 387.882 319.591 385.876 317.618Z" fill="#1A1A1A"/>
<path fill-rule="evenodd" clip-rule="evenodd" d="M317.008 308.652C321.159 308.696 325.165 308.756 328.907 308.849C331.638 311.59 334.362 314.226 337.052 316.944C333.37 317.068 329.498 317.252 325.61 317.42C322.695 314.471 319.771 311.482 317.008 308.653V308.652Z" fill="#1A1A1A"/>
<path fill-rule="evenodd" clip-rule="evenodd" d="M330.655 308.972C334.309 308.984 337.845 309.144 341.134 309.252C343.72 311.77 346.324 314.287 348.832 316.787C345.633 316.755 342.204 316.807 338.749 316.967C336.108 314.186 333.409 311.581 330.655 308.972Z" fill="#1A1A1A"/>
<path fill-rule="evenodd" clip-rule="evenodd" d="M342.797 309.28C346.036 309.344 349.173 309.472 352.135 309.605C354.496 311.878 356.9 314.223 359.307 316.688C356.468 316.708 353.492 316.764 350.423 316.811C347.921 314.274 345.317 311.71 342.799 309.28H342.797Z" fill="#1A1A1A"/>
<path fill-rule="evenodd" clip-rule="evenodd" d="M353.496 309.62C356.443 309.788 358.987 309.839 361.675 309.992C364.062 312.213 366.229 314.346 368.522 316.566C365.961 316.578 363.355 316.551 360.565 316.606C358.309 314.246 355.901 311.901 353.496 309.62Z" fill="#1A1A1A"/>
<path fill-rule="evenodd" clip-rule="evenodd" d="M363.054 310.108C365.502 310.155 367.9 310.224 370.285 310.364C372.494 312.497 374.609 314.521 376.659 316.514C374.522 316.622 372.222 316.638 369.719 316.583C367.505 314.354 365.289 312.265 363.054 310.108Z" fill="#1A1A1A"/>
<path fill-rule="evenodd" clip-rule="evenodd" d="M371.457 310.4C373.79 310.56 375.842 310.649 377.811 310.728C379.896 312.652 382.029 314.593 383.94 316.475C381.991 316.507 379.953 316.571 377.718 316.514C375.666 314.529 373.588 312.509 371.457 310.4Z" fill="#1A1A1A"/>
<path fill-rule="evenodd" clip-rule="evenodd" d="M379.038 310.96C381.113 311.132 382.949 311.228 384.82 311.34C386.728 313.148 388.724 315.012 390.567 316.879C388.806 316.743 386.953 316.719 385.019 316.639C383.102 314.834 381.196 313.03 379.038 310.961V310.96Z" fill="#1A1A1A"/>
<path fill-rule="evenodd" clip-rule="evenodd" d="M321.857 300.179C325.656 300.396 329.251 300.544 332.728 300.827C335.304 303.288 337.792 305.67 340.308 308.234C336.877 308.002 333.447 307.978 329.729 307.87C327.203 305.301 324.565 302.736 321.858 300.179H321.857Z" fill="#1A1A1A"/>
<path fill-rule="evenodd" clip-rule="evenodd" d="M334.468 301.073C337.871 301.228 340.998 301.521 344.153 301.853C346.551 304.063 348.873 306.314 351.251 308.608C348.186 308.351 345.203 308.344 341.889 308.24C339.391 305.795 336.882 303.306 334.468 301.073Z" fill="#1A1A1A"/>
<path fill-rule="evenodd" clip-rule="evenodd" d="M345.61 301.977C348.606 302.209 351.383 302.504 354.195 302.809C356.472 304.874 358.67 307.023 360.961 309.179C358.25 308.903 355.587 308.847 352.61 308.627C350.377 306.467 348.004 304.238 345.61 301.977Z" fill="#1A1A1A"/>
<path fill-rule="evenodd" clip-rule="evenodd" d="M355.564 302.908C358.214 303.145 360.71 303.288 363.187 303.524C365.326 305.525 367.402 307.502 369.524 309.53C367.141 309.406 364.789 309.301 362.15 309.182C359.894 307.054 357.804 304.985 355.564 302.908Z" fill="#1A1A1A"/>
<path fill-rule="evenodd" clip-rule="evenodd" d="M364.418 303.674C366.655 303.822 368.883 304.034 371.175 304.358C373.187 306.199 375.202 308.117 377.159 309.952C375.075 309.852 372.915 309.644 370.693 309.588C368.528 307.559 366.446 305.635 364.418 303.674Z" fill="#1A1A1A"/>
<path fill-rule="evenodd" clip-rule="evenodd" d="M378.022 305.79C379.99 306.034 381.875 306.258 383.605 306.411C385.383 308.046 387.28 309.78 389.11 311.501C387.371 311.346 385.579 311.305 383.792 311.193C381.976 309.408 380.013 307.604 378.022 305.792V305.79Z" fill="#1A1A1A"/>
<path fill-rule="evenodd" clip-rule="evenodd" d="M384.668 306.502C386.354 306.65 387.962 306.758 389.523 306.955C391.157 308.531 392.805 310.004 394.376 311.544C392.996 311.524 391.42 311.411 389.916 311.364C388.236 309.795 386.414 308.086 384.668 306.502Z" fill="#1A1A1A"/>
<path fill-rule="evenodd" clip-rule="evenodd" d="M325.966 293.201C329.384 293.605 332.68 293.994 336.002 294.39C338.355 296.583 340.652 298.708 343.069 300.937C339.81 300.513 336.752 300.329 333.265 299.952C330.882 297.644 328.407 295.47 325.966 293.201Z" fill="#1A1A1A"/>
<path fill-rule="evenodd" clip-rule="evenodd" d="M337.529 294.55C340.572 294.883 343.629 295.314 346.535 295.679C348.691 297.715 350.937 299.772 353.188 301.881C350.342 301.565 347.594 301.344 344.523 301.088C342.11 298.824 339.806 296.718 337.529 294.549V294.55Z" fill="#1A1A1A"/>
<path fill-rule="evenodd" clip-rule="evenodd" d="M347.926 295.842C350.628 296.15 353.278 296.514 355.996 296.923C358.066 298.868 360.044 300.649 362.206 302.642C359.732 302.405 357.206 302.206 354.548 302.029C352.34 299.908 350.057 297.802 347.926 295.842Z" fill="#1A1A1A"/>
<path fill-rule="evenodd" clip-rule="evenodd" d="M357.178 297.107C359.577 297.475 361.975 297.792 364.252 298.1C366.23 299.917 368.299 301.741 370.265 303.53C368.006 303.299 365.783 303.055 363.439 302.79C361.271 300.824 359.219 298.964 357.178 297.107Z" fill="#1A1A1A"/>
<path fill-rule="evenodd" clip-rule="evenodd" d="M371.59 299.664C373.654 299.996 375.565 300.225 377.36 300.457C379.214 302.157 381.086 303.831 382.844 305.543C381.078 305.359 379.271 305.176 377.267 304.919C375.402 303.183 373.544 301.478 371.59 299.666V299.664Z" fill="#1A1A1A"/>
<path fill-rule="evenodd" clip-rule="evenodd" d="M378.691 300.968C380.518 301.212 382.146 301.468 383.806 301.776C385.532 303.316 387.226 304.84 389.039 306.481C387.481 306.276 385.797 306.148 384.112 306.008C382.348 304.319 380.555 302.646 378.69 300.966L378.691 300.968Z" fill="#1A1A1A"/>
<path fill-rule="evenodd" clip-rule="evenodd" d="M318.633 285.101C322.236 285.666 325.639 286.171 328.911 286.737C331.261 288.694 333.49 290.707 335.901 292.911C332.604 292.407 329.275 292.047 325.873 291.606C323.448 289.362 321.054 287.232 318.635 285.099L318.633 285.101Z" fill="#1A1A1A"/>
<path fill-rule="evenodd" clip-rule="evenodd" d="M330.464 286.9C333.685 287.455 336.76 287.888 339.777 288.411C341.867 290.351 344.057 292.224 346.275 294.258C343.348 293.834 340.327 293.462 337.271 292.997C335.032 290.96 332.796 288.975 330.464 286.9Z" fill="#1A1A1A"/>
<path fill-rule="evenodd" clip-rule="evenodd" d="M322.121 279.687C325.397 280.265 328.537 280.899 331.606 281.472C333.814 283.428 335.973 285.305 338.135 287.188C335.238 286.691 332.094 286.211 328.795 285.65C326.616 283.709 324.343 281.702 322.12 279.687H322.121Z" fill="#1A1A1A"/>
<path fill-rule="evenodd" clip-rule="evenodd" d="M286.49 281.74C291.202 282.391 295.591 282.997 299.765 283.431C302.542 285.827 305.085 288.284 307.545 290.589C303.493 290.249 299.179 289.762 294.604 289.269C292.001 286.782 289.294 284.262 286.491 281.742L286.49 281.74Z" fill="#1A1A1A"/>
<path fill-rule="evenodd" clip-rule="evenodd" d="M387.062 333.581C389.181 333.253 391.127 332.884 392.985 332.492C395.304 334.85 397.477 337.114 399.506 339.259C397.801 339.747 395.956 340.355 394.062 340.927C391.683 338.41 389.482 336.097 387.062 333.579V333.581Z" fill="#1A1A1A"/>
<path fill-rule="evenodd" clip-rule="evenodd" d="M379.281 335.217C381.691 334.805 383.93 334.34 386.113 333.897C388.448 336.382 390.77 338.774 393.108 341.247C391.107 341.9 388.97 342.535 386.78 343.176C384.304 340.474 381.726 337.766 379.281 335.217Z" fill="#1A1A1A"/>
<path fill-rule="evenodd" clip-rule="evenodd" d="M369.439 336.646C372.206 336.094 374.854 335.681 377.317 335.321C379.845 337.843 382.41 340.602 384.922 343.296C382.592 343.853 380.076 344.452 377.567 345.281C374.804 342.244 372.173 339.424 369.438 336.646H369.439Z" fill="#1A1A1A"/>
<path fill-rule="evenodd" clip-rule="evenodd" d="M359.318 338.439C362.434 337.83 365.504 337.143 368.197 336.611C370.957 339.512 373.751 342.372 376.389 345.338C373.731 346.15 370.919 347.038 367.849 347.763C365.037 344.633 362.202 341.596 359.318 338.44V338.439Z" fill="#1A1A1A"/>
<path fill-rule="evenodd" clip-rule="evenodd" d="M347.286 340.588C350.896 339.96 354.476 339.416 357.568 338.524C360.48 341.738 363.456 344.979 366.218 348.135C363.148 349.024 359.925 349.928 356.511 350.788C353.39 347.283 350.402 343.965 347.285 340.588H347.286Z" fill="#1A1A1A"/>
<path fill-rule="evenodd" clip-rule="evenodd" d="M333.655 343.473C337.897 342.596 341.797 341.813 345.463 340.98C348.61 344.441 351.789 347.899 354.896 351.505C351.07 352.564 347.542 353.886 343.493 354.921C340.149 351.072 336.842 347.239 333.655 343.473Z" fill="#1A1A1A"/>
<path fill-rule="evenodd" clip-rule="evenodd" d="M317.9 347.082C322.861 346.109 327.257 345.19 331.689 344.225C334.997 348.026 338.298 351.895 341.603 355.678C337.464 357.047 333.08 358.387 328.481 359.759C324.842 355.321 321.384 351.148 317.9 347.082Z" fill="#1A1A1A"/>
<path fill-rule="evenodd" clip-rule="evenodd" d="M153.914 325.11C157.037 322.613 160.094 320.093 162.888 317.792C167.402 320.349 171.895 322.73 176.434 325.43C173.901 328.076 171.394 330.849 168.363 333.686C163.469 330.793 158.579 327.916 153.916 325.11H153.914Z" fill="#1A1A1A"/>
<path fill-rule="evenodd" clip-rule="evenodd" d="M307.098 319.984C308.34 318.733 309.553 317.568 310.816 316.571C312.574 317.803 314.405 319.115 316.214 320.364C315.091 321.549 314.03 322.822 312.891 324.253C310.944 322.797 309.003 321.352 307.096 319.984H307.098Z" fill="#1A1A1A"/>
<path fill-rule="evenodd" clip-rule="evenodd" d="M356.265 273.741C356.748 273.003 357.192 272.234 357.6 271.464C359.182 272.774 360.872 274.192 362.53 275.573C362.272 276.459 361.906 277.269 361.493 278.136C359.758 276.677 357.994 275.194 356.266 273.741H356.265Z" fill="#1A1A1A"/>
<path fill-rule="evenodd" clip-rule="evenodd" d="M99.4258 401.755C103.329 398.698 107.01 395.77 110.586 393.191C115.242 394.625 119.811 396.321 124.604 397.941C121.128 400.758 117.707 403.803 114.191 407.084C109.191 405.202 104.076 403.507 99.4242 401.754L99.4258 401.755Z" fill="#1A1A1A"/>
<path fill-rule="evenodd" clip-rule="evenodd" d="M345.123 283.657C345.507 283.235 345.81 282.823 346.111 282.427C347.139 283.174 348.174 283.907 349.173 284.639C348.942 285.092 348.703 285.624 348.435 286.069C347.329 285.268 346.264 284.474 345.123 283.655V283.657Z" fill="#1A1A1A"/>
<path fill-rule="evenodd" clip-rule="evenodd" d="M309.693 264.335C310.62 263.94 311.499 263.591 312.368 263.27C313.679 264.161 314.989 265.084 316.329 266.057C315.598 266.497 314.794 266.889 313.881 267.395C312.516 266.329 311.104 265.334 309.693 264.337V264.335Z" fill="#1A1A1A"/>
<path fill-rule="evenodd" clip-rule="evenodd" d="M112.489 300.516C116.164 299.004 119.581 297.684 122.827 296.439C127.026 298.181 131.001 299.849 134.805 301.617C131.872 303.082 128.782 304.583 125.326 306.427C120.889 304.358 116.577 302.306 112.489 300.516Z" fill="#1A1A1A"/>
<path fill-rule="evenodd" clip-rule="evenodd" d="M324.723 261.978C325.283 261.714 325.702 261.368 326.146 261.107C327.214 261.806 328.232 262.594 329.26 263.355C328.883 263.689 328.536 264.084 328.082 264.388C327.058 263.606 325.892 262.778 324.723 261.978Z" fill="#1A1A1A"/>
<path fill-rule="evenodd" clip-rule="evenodd" d="M348.086 256.218C348.383 256.001 348.708 255.835 349 255.635C349.769 256.232 350.613 256.848 351.352 257.416C351.096 257.648 350.874 257.883 350.646 258.151C349.803 257.515 348.928 256.867 348.086 256.218Z" fill="#1A1A1A"/>
<path fill-rule="evenodd" clip-rule="evenodd" d="M96.603 350.148C99.2194 348.896 101.337 347.715 103.571 346.583C106.851 347.512 109.993 348.352 113.123 349.261C111.203 350.421 109.029 351.773 106.727 353.054C103.299 352.121 99.94 351.105 96.603 350.148Z" fill="#1A1A1A"/>
<path fill-rule="evenodd" clip-rule="evenodd" d="M289.144 258.279C290.062 258.008 291 257.822 291.794 257.544C293.072 258.378 294.421 259.244 295.63 260.048C294.86 260.386 294.14 260.675 293.289 260.992C292.017 260.118 290.53 259.154 289.144 258.279Z" fill="#1A1A1A"/>
<path fill-rule="evenodd" clip-rule="evenodd" d="M322.974 237.663C323.557 237.555 324.14 237.462 324.712 237.433C325.673 238.043 326.588 238.739 327.508 239.407C326.963 239.502 326.415 239.605 325.866 239.726C324.884 239.006 323.929 238.322 322.974 237.663Z" fill="#1A1A1A"/>
<path fill-rule="evenodd" clip-rule="evenodd" d="M337.488 262.919C338.018 262.751 338.54 262.632 339.028 262.483C339.849 263.074 340.78 263.724 341.643 264.309C341.151 264.483 340.699 264.645 340.204 264.821C339.274 264.175 338.416 263.567 337.487 262.919H337.488Z" fill="#1A1A1A"/>
<path fill-rule="evenodd" clip-rule="evenodd" d="M349.962 276.522C350.492 276.348 350.987 276.148 351.474 276.02C352.248 276.546 353.099 277.11 353.916 277.635C353.425 277.808 352.934 277.991 352.476 278.199C351.664 277.645 350.812 277.089 349.962 276.522Z" fill="#1A1A1A"/>
<path fill-rule="evenodd" clip-rule="evenodd" d="M267.599 283.797C268.748 283.497 269.85 283.19 270.908 282.907C272.302 283.658 273.659 284.373 275.13 285.16C274.042 285.409 272.974 285.749 271.908 286.064C270.521 285.29 269.004 284.521 267.599 283.797Z" fill="#1A1A1A"/>
<path fill-rule="evenodd" clip-rule="evenodd" d="M362.781 288.427C363.272 288.255 363.768 288.028 364.219 287.846C364.98 288.354 365.665 288.819 366.391 289.315C365.978 289.507 365.561 289.723 365.105 289.955C364.343 289.427 363.578 288.967 362.781 288.426V288.427Z" fill="#1A1A1A"/>
<path fill-rule="evenodd" clip-rule="evenodd" d="M356.548 268.246C356.978 268.134 357.399 268.092 357.826 268.012C358.451 268.439 359.108 268.917 359.738 269.318C359.386 269.394 358.958 269.504 358.6 269.626C357.905 269.145 357.246 268.682 356.548 268.247V268.246Z" fill="#1A1A1A"/>
<path fill-rule="evenodd" clip-rule="evenodd" d="M41 378.239C44.4916 377.187 48.1837 375.939 51.9155 374.854C55.3719 375.595 59.1053 376.123 62.6152 376.771C59.2598 377.799 55.6259 379.003 52.2689 380.197C48.3474 379.537 44.7196 378.928 41 378.241V378.239Z" fill="#1A1A1A"/>
<path fill-rule="evenodd" clip-rule="evenodd" d="M309.333 243.949C310.103 243.98 310.796 243.987 311.489 243.993C312.302 244.51 313.149 245.05 314.024 245.628C313.334 245.596 312.702 245.654 312.006 245.648C311.131 245.071 310.254 244.489 309.335 243.949H309.333Z" fill="#1A1A1A"/>
<path fill-rule="evenodd" clip-rule="evenodd" d="M213.443 310.337C215.181 309.913 217.043 309.66 218.817 309.275C220.564 309.884 222.154 310.416 223.716 311.041C222.106 311.337 220.363 311.753 218.544 312.169C216.844 311.541 215.099 310.937 213.445 310.337H213.443Z" fill="#1A1A1A"/>
<path fill-rule="evenodd" clip-rule="evenodd" d="M219.377 341.924C220.945 340.944 222.496 339.968 224.057 339.119C226.242 339.959 228.47 340.947 230.713 341.9C229.261 342.868 227.818 343.811 226.36 344.912C223.929 343.808 221.626 342.883 219.377 341.922V341.924Z" fill="#1A1A1A"/>
<path fill-rule="evenodd" clip-rule="evenodd" d="M257.351 302.918C258.765 302.11 260.068 301.388 261.278 300.686C263.139 301.718 265.078 302.814 267.015 303.93C265.797 304.679 264.709 305.578 263.352 306.351C261.292 305.194 259.326 304.043 257.351 302.918Z" fill="#1A1A1A"/>
</g>
<g clip-path="url(#clip1_264_7)">
<path fill-rule="evenodd" clip-rule="evenodd" d="M258.702 18.7648C259.251 19.148 259.051 19.7019 261.426 19.3567C265.315 18.0664 260.695 19.7099 261.356 19.5574C260.209 19.3668 260.767 18.6624 260.829 18.231C260.314 18.3634 259.484 18.542 258.702 18.7648Z" fill="#1A1A1A"/>
<path fill-rule="evenodd" clip-rule="evenodd" d="M-2.12201 1.09726C4.15146 -4.87487 9.35142 -10.4156 14.1543 -15.6291C6.04109 -21.519 -1.83466 -26.9774 -10.5644 -32.7368C-13.7171 -30.1621 -17.2569 -27.5333 -21.0023 -24.782L-21.0023 -10.7105C-14.5233 -6.74518 -8.25979 -2.81192 -2.12201 1.09726Z" fill="#1A1A1A"/>
<path fill-rule="evenodd" clip-rule="evenodd" d="M-11.7057 80.0534C-4.90342 69.9454 1.53964 61.1939 7.46191 52.0611C-1.77668 46.6147 -10.9095 40.9536 -21.0021 35.2363L-21.0021 75.0787C-17.8694 76.7222 -14.7706 78.3798 -11.7057 80.0534Z" fill="#1A1A1A"/>
<path fill-rule="evenodd" clip-rule="evenodd" d="M10.0859 47.9673C15.7468 39.9342 21.1682 32.4209 26.1367 25.4674C17.4588 19.6358 8.81287 13.8603 -0.367863 8.10889C-6.61539 14.8596 -13.5713 21.7689 -20.3256 29.6656C-9.68827 35.72 0.240729 42.0132 10.0859 47.9673Z" fill="#1A1A1A"/>
<path fill-rule="evenodd" clip-rule="evenodd" d="M28.4535 22.1402C32.3086 15.4778 36.5607 9.58191 40.5195 3.84857C33.4399 -1.44126 26.0171 -6.90569 18.2731 -12.1875C13.2348 -6.80937 8.09265 -1.29276 2.19432 4.89009C11.4329 10.782 20.1368 16.2885 28.4535 22.1402Z" fill="#1A1A1A"/>
<path fill-rule="evenodd" clip-rule="evenodd" d="M42.6241 1.23776C46.1799 -4.28486 49.7836 -9.31984 52.8105 -14.1702C46.7506 -19.0246 39.8805 -24.19 32.8727 -29.1206C28.9079 -24.6054 25.0389 -19.7932 20.5972 -14.5996C27.9961 -9.5165 35.349 -4.0882 42.6241 1.23776Z" fill="#1A1A1A"/>
<path fill-rule="evenodd" clip-rule="evenodd" d="M83.9191 247.143C87.3871 230.663 90.8052 215.52 94.0576 201.258C85.1961 195.762 76.7338 190.151 67.6528 184.897C63.8037 198.732 58.8432 213.995 53.7909 230.896C64.2487 236.395 74.1418 241.725 83.9191 247.145L83.9191 247.143Z" fill="#1A1A1A"/>
<path fill-rule="evenodd" clip-rule="evenodd" d="M93.9257 152.104C96.4758 140.599 98.99 130.477 100.892 120.403C94.2031 115.463 87.2752 110.083 80.012 104.719C77.0269 114.548 73.8223 124.864 70.2765 135.952C78.2421 141.117 86.4231 146.74 93.9277 152.104L93.9257 152.104Z" fill="#1A1A1A"/>
<path fill-rule="evenodd" clip-rule="evenodd" d="M145.983 138.569C146.35 129.406 146.905 120.833 147.344 112.561C142.264 107.907 137.309 103.352 132.161 98.9731C131.433 106.996 130.507 115.517 129.182 124.581C134.984 129.105 140.603 133.62 145.983 138.569Z" fill="#1A1A1A"/>
<path fill-rule="evenodd" clip-rule="evenodd" d="M0.44 147.134C7.60939 133.648 14.5214 121.766 20.707 110.141C10.1595 104.042 -1.18423 97.7953 -12.506 91.5784C-15.3195 95.3832 -18.141 99.2563 -21.0003 103.228L-21.0003 136.666C-13.6733 140.208 -6.5518 143.69 0.44 147.134Z" fill="#1A1A1A"/>
<path fill-rule="evenodd" clip-rule="evenodd" d="M23.4833 104.763C28.6473 94.2371 33.4442 84.5204 38.1992 75.5943C29.4694 69.8429 20.0991 63.7162 10.4316 58.1836C4.4095 66.8789 -1.77018 76.2324 -8.42676 86.5171C2.72341 92.4592 13.0814 98.6621 23.4833 104.763Z" fill="#1A1A1A"/>
<path fill-rule="evenodd" clip-rule="evenodd" d="M39.5242 70.708C43.9699 62.0127 47.8569 54.088 51.5703 46.5746C44.2114 41.3952 36.597 35.9308 28.853 30.4382C23.9403 37.6526 18.5249 45.5512 12.8281 53.8692C22.4378 59.5765 30.9381 65.081 39.5262 70.708L39.5242 70.708Z" fill="#1A1A1A"/>
<path fill-rule="evenodd" clip-rule="evenodd" d="M54.2779 41.9408C57.4785 34.9974 60.5993 28.4413 63.7041 22.2324C57.3568 17.2777 50.6583 12.3009 43.7763 7.31811C39.7077 13.1959 35.8207 19.3467 31.9397 26.0613C39.2986 31.2649 46.8292 36.645 54.2759 41.9408L54.2779 41.9408Z" fill="#1A1A1A"/>
<path fill-rule="evenodd" clip-rule="evenodd" d="M65.5218 18.6424C68.7104 12.9994 71.063 7.59717 73.3936 2.2371C67.4593 -2.42662 61.3954 -7.21276 55.2676 -12.1313C52.4241 -7.06226 49.1238 -1.76239 45.4583 3.57963C52.2406 8.52831 59.0388 13.6977 65.5218 18.6424Z" fill="#1A1A1A"/>
<path fill-rule="evenodd" clip-rule="evenodd" d="M121.977 93.8139C123.031 86.1441 123.931 78.8354 125.04 71.7415C119.734 67.3166 114.618 62.8595 109.293 58.1677C107.868 64.9285 106.523 72.1248 104.631 79.7906C110.566 84.4985 116.278 89.2184 121.977 93.8159L121.977 93.8139Z" fill="#1A1A1A"/>
<path fill-rule="evenodd" clip-rule="evenodd" d="M172.049 89.6979C171.704 83.0836 171.4 76.8024 171.117 70.8202C167.461 67.1318 163.754 63.4815 160.214 59.7168C160.178 65.701 160.262 71.6892 160.35 78.1309C164.309 81.8675 168.18 85.8228 172.049 89.6959L172.049 89.6979Z" fill="#1A1A1A"/>
<path fill-rule="evenodd" clip-rule="evenodd" d="M19.6398 218.133C26.5159 201.3 32.5958 185.864 38.2168 171.175C27.6493 165.451 16.2936 159.325 4.12779 153.738C-3.40276 168.158 -11.0491 183.263 -19.2301 200.15C-6.01073 205.86 7.08693 212.026 19.6398 218.131L19.6398 218.133Z" fill="#1A1A1A"/>
<path fill-rule="evenodd" clip-rule="evenodd" d="M57.1054 122.83C61.0602 112.18 64.5781 102.042 68.04 92.6419C60.2162 87.1675 51.9214 81.5886 43.5348 76.1624C38.9415 85.1466 34.2763 95.042 29.5572 105.154C38.7958 111.046 48.3058 116.926 57.1034 122.828L57.1054 122.83Z" fill="#1A1A1A"/>
<path fill-rule="evenodd" clip-rule="evenodd" d="M79.2901 58.1997C81.7783 50.8409 84.051 44.1263 86.3916 37.7327C80.6888 33.0971 74.4932 28.2467 68.1239 23.593C65.1867 29.6815 62.07 36.346 58.8494 43.0747C65.925 47.9391 72.859 53.1788 79.2901 58.2017L79.2901 58.1997Z" fill="#1A1A1A"/>
<path fill-rule="evenodd" clip-rule="evenodd" d="M87.5222 34.0804C89.5655 27.9858 91.3713 22.2766 93.0215 16.8041C87.616 12.2207 82.1287 7.77169 76.6714 3.18823C74.4505 8.39378 72.2197 13.6977 69.4441 19.435C75.8173 24.4058 81.9551 29.1678 87.5222 34.0804Z" fill="#1A1A1A"/>
<path fill-rule="evenodd" clip-rule="evenodd" d="M93.6223 14.4463C95.2565 9.37318 96.8648 4.45058 98.499 -0.379709C93.7341 -4.40328 89.0509 -8.42885 84.1922 -12.5427C82.2028 -8.09372 79.97 -3.39589 77.8189 1.38423C83.2084 5.85932 88.5341 10.2782 93.6243 14.4443L93.6223 14.4463Z" fill="#1A1A1A"/>
<path fill-rule="evenodd" clip-rule="evenodd" d="M127.831 44.5236C128.418 38.7762 128.863 33.2436 129.443 27.9377C125.223 24.0144 120.901 20.0129 116.639 16.0215C115.781 21.1407 114.753 26.252 113.592 31.9913C118.431 36.1774 123.244 40.3194 127.831 44.5236Z" fill="#1A1A1A"/>
<path fill-rule="evenodd" clip-rule="evenodd" d="M129.827 25.5276C130.455 20.5247 130.88 15.6362 131.465 11.2454C127.522 7.40045 123.489 3.59762 119.54 0.0275874C118.698 4.37424 117.848 8.85937 117.074 13.7037C121.211 17.5487 125.62 21.6023 129.827 25.5276Z" fill="#1A1A1A"/>
<path fill-rule="evenodd" clip-rule="evenodd" d="M131.706 9.0662C132.145 4.50281 132.534 0.411008 132.915 -3.55838C129.427 -6.99597 125.688 -10.6021 122.106 -14.0337C121.388 -10.2168 120.661 -6.26951 119.781 -2.1135C123.856 1.50269 127.879 5.31756 131.706 9.0662Z" fill="#1A1A1A"/>
<path fill-rule="evenodd" clip-rule="evenodd" d="M143.659 38.0317C143.988 32.8563 144.171 27.721 144.471 23.0833C140.753 19.3668 136.972 15.6944 133.123 12.1104C132.662 16.6958 132.217 21.5823 131.652 26.4487C135.795 30.2856 139.905 34.255 143.661 38.0297L143.659 38.0317Z" fill="#1A1A1A"/>
<path fill-rule="evenodd" clip-rule="evenodd" d="M144.6 20.8278C144.674 16.1962 144.768 11.7994 144.945 7.67148C141.509 4.32219 137.912 0.637763 134.482 -2.60718C134.098 1.29799 133.801 5.54029 133.444 9.92106C137.189 13.469 140.975 17.2076 144.598 20.8278L144.6 20.8278Z" fill="#1A1A1A"/>
<path fill-rule="evenodd" clip-rule="evenodd" d="M144.962 5.6826C145.062 1.59282 145.056 -2.25014 145.146 -6.04092C142.083 -9.25977 138.824 -12.4706 135.468 -15.5891C135.274 -12.0291 135.017 -8.34669 134.568 -4.50775C137.982 -1.31298 141.596 2.32127 144.964 5.68461L144.962 5.6826Z" fill="#1A1A1A"/>
<path fill-rule="evenodd" clip-rule="evenodd" d="M157.446 50.9993C157.388 45.555 157.311 40.3013 157.189 35.3927C153.601 31.8106 150.151 28.2386 146.593 24.7107C146.432 29.539 146.19 34.6181 145.971 39.7173C149.83 43.5402 153.743 47.3751 157.444 50.9993L157.446 50.9993Z" fill="#1A1A1A"/>
<path fill-rule="evenodd" clip-rule="evenodd" d="M157.027 33.1011C157.011 28.309 156.802 23.6713 156.66 19.3568C153.366 15.9653 150.071 12.5498 146.799 9.26074C146.841 13.4569 146.773 17.9541 146.564 22.4853C150.203 25.949 153.613 29.4889 157.027 33.1011Z" fill="#1A1A1A"/>
<path fill-rule="evenodd" clip-rule="evenodd" d="M156.624 17.1755C156.54 12.9272 156.373 8.81327 156.199 4.92817C153.224 1.83173 150.155 -1.3209 146.928 -4.47754C146.903 -0.754988 146.829 3.14817 146.767 7.17375C150.087 10.4548 153.443 13.8703 156.624 17.1735L156.624 17.1755Z" fill="#1A1A1A"/>
<path fill-rule="evenodd" clip-rule="evenodd" d="M156.18 3.144C155.96 -0.721028 155.892 -4.05829 155.693 -7.58417C152.786 -10.7147 149.994 -13.5563 147.089 -16.5645C147.073 -13.2051 147.109 -9.7876 147.037 -6.12726C150.126 -3.16929 153.195 -0.0106336 156.18 3.144Z" fill="#1A1A1A"/>
<path fill-rule="evenodd" clip-rule="evenodd" d="M168.535 44.64C168.252 39.6572 168.058 34.9413 167.687 30.3819C164.467 27.0026 161.35 23.7396 157.994 20.4404C158.297 24.9396 158.329 29.4388 158.47 34.3152C161.833 37.6284 165.189 41.088 168.535 44.638L168.535 44.64Z" fill="#1A1A1A"/>
<path fill-rule="evenodd" clip-rule="evenodd" d="M167.365 28.1003C167.162 23.6373 166.779 19.5355 166.344 15.3975C163.452 12.2529 160.505 9.20665 157.504 6.08813C157.839 10.1077 157.849 14.0209 157.985 18.3675C161.186 21.6426 164.442 24.9337 167.365 28.1003Z" fill="#1A1A1A"/>
<path fill-rule="evenodd" clip-rule="evenodd" d="M166.183 13.4869C165.879 9.55766 165.492 5.91538 165.093 2.22695C162.391 -0.759121 159.578 -3.64284 156.756 -6.64697C157.118 -3.09098 157.191 0.400787 157.479 4.30595C160.306 7.23383 163.223 10.3463 166.183 13.4869Z" fill="#1A1A1A"/>
<path fill-rule="evenodd" clip-rule="evenodd" d="M164.963 0.431068C164.654 -3.04465 164.466 -6.31769 164.157 -9.56664C161.539 -12.3721 158.951 -15.0953 156.297 -17.8787C156.459 -14.7521 156.596 -11.6677 156.752 -8.20605C159.537 -5.24808 162.245 -2.50684 164.963 0.431068Z" fill="#1A1A1A"/>
<path fill-rule="evenodd" clip-rule="evenodd" d="M177.668 39.25C177.139 34.7669 176.63 30.4443 176.112 26.0876C173.242 23.0012 170.461 19.989 167.543 16.8184C168.098 21.0928 168.34 25.1043 168.832 29.6777C171.853 32.8023 174.699 36.0492 177.668 39.25Z" fill="#1A1A1A"/>
<path fill-rule="evenodd" clip-rule="evenodd" d="M175.902 24.0846C175.467 20.0931 174.903 16.0836 174.426 12.2728C171.76 9.44524 169.068 6.49932 166.309 3.54736C166.722 7.27995 167.011 10.8841 167.346 14.9117C170.309 18.0763 173.065 21.0985 175.904 24.0846L175.902 24.0846Z" fill="#1A1A1A"/>
<path fill-rule="evenodd" clip-rule="evenodd" d="M174.212 10.4486C173.809 6.90468 173.332 3.42896 172.797 -0.135054C170.251 -2.85021 167.92 -5.44496 165.313 -8.28052C165.622 -5.03558 165.883 -1.7224 166.115 1.76335C168.89 4.65912 171.646 7.6532 174.212 10.4486Z" fill="#1A1A1A"/>
<path fill-rule="evenodd" clip-rule="evenodd" d="M188.269 48.8683C187.529 44.1424 186.869 39.6794 186.128 35.3889C183.566 32.3065 180.932 29.3826 178.047 26.22C178.708 30.5446 179.179 34.9113 179.755 39.3723C182.692 42.553 185.48 45.6936 188.271 48.8663L188.269 48.8683Z" fill="#1A1A1A"/>
<path fill-rule="evenodd" clip-rule="evenodd" d="M185.915 33.3519C185.189 29.1277 184.622 25.0941 183.938 21.1367C181.398 18.3955 178.947 15.5238 176.285 12.614C176.84 16.453 177.327 20.4163 177.936 24.4238C180.601 27.3597 183.199 30.2936 185.915 33.3519Z" fill="#1A1A1A"/>
<path fill-rule="evenodd" clip-rule="evenodd" d="M195.354 44.2929C194.598 39.9964 193.768 35.8785 193.018 31.8529C190.458 28.9572 188.002 26.1256 185.537 23.29C186.188 27.0888 186.816 31.2128 187.551 35.5393C190.091 38.397 192.717 41.379 195.354 44.2949L195.354 44.2929Z" fill="#1A1A1A"/>
<path fill-rule="evenodd" clip-rule="evenodd" d="M192.667 91.0265C191.815 84.8456 191.023 79.0902 190.454 73.6158C187.319 69.9735 184.103 66.6383 181.086 63.4114C181.531 68.7253 182.169 74.3844 182.814 80.3846C186.068 83.7981 189.367 87.3481 192.665 91.0245L192.667 91.0265Z" fill="#1A1A1A"/>
<path fill-rule="evenodd" clip-rule="evenodd" d="M115.65 11.2875C116.472 6.55352 117.184 1.85769 118.352 -2.19798C114.145 -6.01686 109.903 -9.92002 105.773 -13.5422C104.609 -9.51666 103.426 -5.28841 102.301 -0.811311C106.888 3.28249 111.23 7.20171 115.65 11.2895L115.65 11.2875Z" fill="#1A1A1A"/>
<path fill-rule="evenodd" clip-rule="evenodd" d="M111.874 29.1658C113.022 23.603 114.047 18.4878 115.137 13.6796C110.607 9.55166 106.082 5.3816 101.363 1.30786C99.9758 6.32478 98.2459 10.9524 96.891 16.2623C101.929 20.6491 106.946 24.9857 111.874 29.1658Z" fill="#1A1A1A"/>
<path fill-rule="evenodd" clip-rule="evenodd" d="M107.151 49.8295C108.424 43.3236 109.628 37.5581 110.891 31.7445C105.916 27.4059 100.852 23.0773 95.9014 18.7427C94.1095 24.171 92.3556 29.9204 90.5597 35.9527C96.3683 40.7248 101.83 45.2601 107.151 49.8295Z" fill="#1A1A1A"/>
<path fill-rule="evenodd" clip-rule="evenodd" d="M135.907 264.907C139.175 260.811 142.473 256.801 145.484 253.137C142.138 247.217 139.021 241.323 135.488 235.371C132.026 238.692 128.396 241.981 124.683 245.957C128.47 252.374 132.235 258.788 135.907 264.905L135.907 264.907Z" fill="#1A1A1A"/>
<path fill-rule="evenodd" clip-rule="evenodd" d="M142.615 63.9973C144.254 62.3678 145.778 60.7765 147.083 59.1209C145.471 56.8151 143.753 54.413 142.119 52.041C140.568 53.514 138.902 54.9047 137.028 56.3997C138.934 58.9523 140.826 61.4989 142.615 63.9993L142.615 63.9973Z" fill="#1A1A1A"/>
<path fill-rule="evenodd" clip-rule="evenodd" d="M35.5966 336.372C39.5974 331.252 43.4305 326.424 46.8047 321.734C44.929 315.628 42.7082 309.636 40.5891 303.348C36.9016 307.908 32.9169 312.395 28.6228 317.006C31.0851 323.565 33.304 330.273 35.5986 336.374L35.5966 336.372Z" fill="#1A1A1A"/>
<path fill-rule="evenodd" clip-rule="evenodd" d="M190.159 14.1251C190.712 13.6214 191.251 13.2241 191.77 12.8288C190.792 11.4802 189.832 10.1237 188.874 8.81323C188.282 9.11625 187.585 9.42931 187.003 9.7805C188.05 11.2314 189.09 12.6281 190.161 14.1251L190.159 14.1251Z" fill="#1A1A1A"/>
<path fill-rule="evenodd" clip-rule="evenodd" d="M215.446 60.5937C215.963 59.3776 216.42 58.2257 216.841 57.0859C215.674 55.3661 214.466 53.6483 213.193 51.8904C212.617 52.8496 212.104 53.9032 211.441 55.1012C212.836 56.8912 214.139 58.7435 215.444 60.5937L215.446 60.5937Z" fill="#1A1A1A"/>
<path fill-rule="evenodd" clip-rule="evenodd" d="M168.094 319.238C170.073 314.418 171.801 309.937 173.43 305.678C171.151 300.172 168.968 294.958 166.653 289.969C164.736 293.816 162.772 297.868 160.358 302.401C163.066 308.221 165.751 313.876 168.094 319.238Z" fill="#1A1A1A"/>
<path fill-rule="evenodd" clip-rule="evenodd" d="M218.531 40.8815C218.876 40.147 219.329 39.5971 219.67 39.0152C218.756 37.6145 217.724 36.2799 216.729 34.9314C216.292 35.4251 215.775 35.8806 215.376 36.4766C216.399 37.8191 217.483 39.3483 218.531 40.8815Z" fill="#1A1A1A"/>
<path fill-rule="evenodd" clip-rule="evenodd" d="M226.07 10.238C226.353 9.84869 226.571 9.42326 226.832 9.03997C226.052 8.03056 225.246 6.92483 224.501 5.95557C224.198 6.2907 223.891 6.58167 223.54 6.88068C224.372 7.98641 225.22 9.13428 226.07 10.238Z" fill="#1A1A1A"/>
<path fill-rule="evenodd" clip-rule="evenodd" d="M103.139 340.074C104.777 336.642 106.323 333.865 107.804 330.935C106.589 326.633 105.489 322.513 104.3 318.407C102.781 320.925 101.011 323.777 99.3353 326.795C100.557 331.292 101.885 335.697 103.139 340.074Z" fill="#1A1A1A"/>
<path fill-rule="evenodd" clip-rule="evenodd" d="M223.372 87.5448C223.727 86.3407 223.971 85.1106 224.334 84.0691C223.243 82.3934 222.109 80.6234 221.058 79.0381C220.615 80.0475 220.237 80.9927 219.822 82.1084C220.966 83.7761 222.227 85.7266 223.372 87.5448Z" fill="#1A1A1A"/>
<path fill-rule="evenodd" clip-rule="evenodd" d="M250.353 43.1751C250.495 42.4105 250.616 41.6459 250.654 40.8954C249.856 39.6351 248.944 38.4351 248.07 37.229C247.947 37.9434 247.811 38.6618 247.653 39.3823C248.595 40.6706 249.491 41.9228 250.353 43.1751Z" fill="#1A1A1A"/>
<path fill-rule="evenodd" clip-rule="evenodd" d="M217.299 24.1388C217.519 23.4445 217.675 22.7602 217.87 22.12C217.096 21.0424 216.246 19.8222 215.48 18.6904C215.252 19.3346 215.041 19.9286 214.809 20.5768C215.655 21.7969 216.451 22.9227 217.299 24.1408L217.299 24.1388Z" fill="#1A1A1A"/>
<path fill-rule="evenodd" clip-rule="evenodd" d="M199.497 7.77776C199.724 7.08342 199.986 6.43323 200.153 5.79508C199.465 4.77965 198.727 3.6639 198.04 2.59229C197.813 3.23646 197.573 3.88062 197.302 4.48065C198.026 5.54624 198.755 6.66401 199.497 7.77776Z" fill="#1A1A1A"/>
<path fill-rule="evenodd" clip-rule="evenodd" d="M189.975 115.802C190.368 114.295 190.769 112.85 191.141 111.461C190.157 109.633 189.221 107.853 188.191 105.925C187.866 107.351 187.421 108.752 187.008 110.151C188.022 111.969 189.028 113.96 189.975 115.802Z" fill="#1A1A1A"/>
<path fill-rule="evenodd" clip-rule="evenodd" d="M66.374 413C67.7508 408.421 69.385 403.578 70.8037 398.684C69.834 394.15 69.1436 389.254 68.2955 384.65C66.9506 389.051 65.3743 393.817 63.8119 398.22C64.6759 403.364 65.4721 408.122 66.372 413L66.374 413Z" fill="#1A1A1A"/>
<path fill-rule="evenodd" clip-rule="evenodd" d="M242.126 61.0654C242.086 60.0559 242.076 59.1469 242.068 58.2378C241.392 57.1722 240.685 56.0605 239.929 54.9126C239.971 55.8176 239.895 56.6464 239.903 57.5595C240.657 58.7074 241.42 59.8573 242.126 61.0633L242.126 61.0654Z" fill="#1A1A1A"/>
<path fill-rule="evenodd" clip-rule="evenodd" d="M155.242 186.831C155.797 184.552 156.128 182.109 156.631 179.784C155.835 177.492 155.138 175.407 154.32 173.358C153.933 175.469 153.388 177.755 152.844 180.141C153.666 182.37 154.456 184.66 155.242 186.829L155.242 186.831Z" fill="#1A1A1A"/>
<path fill-rule="evenodd" clip-rule="evenodd" d="M113.902 179.049C115.185 176.992 116.462 174.957 117.573 172.911C116.474 170.045 115.181 167.123 113.934 164.181C112.667 166.086 111.431 167.978 109.991 169.89C111.435 173.079 112.647 176.099 113.904 179.049L113.902 179.049Z" fill="#1A1A1A"/>
<path fill-rule="evenodd" clip-rule="evenodd" d="M164.951 129.243C166.008 127.389 166.952 125.679 167.872 124.092C166.521 121.652 165.087 119.109 163.626 116.569C162.646 118.166 161.469 119.593 160.457 121.373C161.972 124.074 163.478 126.653 164.951 129.243Z" fill="#1A1A1A"/>
</g>
<defs>
<clipPath id="clip0_264_7">
<rect width="398" height="217" fill="white" transform="matrix(-1 0 0 1 439 228)"/>
</clipPath>
<clipPath id="clip1_264_7">
<rect width="522" height="284" fill="white" transform="translate(263 -109) rotate(90)"/>
</clipPath>
</defs>
</svg>
