<svg width="44" height="44" viewBox="0 0 44 44" fill="none" xmlns="http://www.w3.org/2000/svg">
<rect x="43.5" y="43.5" width="43" height="43" rx="21.5" transform="rotate(-180 43.5 43.5)" fill="#1A1A1A"/>
<rect x="43.5" y="43.5" width="43" height="43" rx="21.5" transform="rotate(-180 43.5 43.5)" stroke="#262626"/>
<path fill-rule="evenodd" clip-rule="evenodd" d="M30.4004 22.0001C30.4004 22.4971 29.9974 22.9001 29.5004 22.9001L16.7349 22.9001L21.7242 27.6513C22.0825 27.9958 22.0937 28.5656 21.7491 28.9238C21.4046 29.2821 20.8349 29.2933 20.4766 28.9488L13.8766 22.6488C13.7001 22.4791 13.6004 22.2449 13.6004 22.0001C13.6004 21.7552 13.7001 21.521 13.8766 21.3513L20.4766 15.0513C20.8349 14.7068 21.4046 14.718 21.7491 15.0763C22.0937 15.4345 22.0825 16.0043 21.7242 16.3488L16.7349 21.1001L29.5004 21.1001C29.9974 21.1001 30.4004 21.503 30.4004 22.0001Z" fill="white"/>
</svg>
