<svg width="44" height="44" viewBox="0 0 44 44" fill="none" xmlns="http://www.w3.org/2000/svg">
<rect x="0.5" y="0.5" width="43" height="43" rx="21.5" fill="#1A1A1A"/>
<rect x="0.5" y="0.5" width="43" height="43" rx="21.5" stroke="#262626"/>
<path fill-rule="evenodd" clip-rule="evenodd" d="M13.5996 21.9999C13.5996 21.5029 14.0026 21.0999 14.4996 21.0999L27.2651 21.0999L22.2758 16.3487C21.9175 16.0042 21.9063 15.4344 22.2509 15.0762C22.5954 14.7179 23.1651 14.7067 23.5234 15.0512L30.1234 21.3512C30.2999 21.5209 30.3996 21.7551 30.3996 21.9999C30.3996 22.2448 30.2999 22.479 30.1234 22.6487L23.5234 28.9487C23.1651 29.2932 22.5954 29.282 22.2509 28.9237C21.9063 28.5655 21.9175 27.9957 22.2758 27.6512L27.2651 22.8999L14.4996 22.8999C14.0026 22.8999 13.5996 22.497 13.5996 21.9999Z" fill="white"/>
</svg>
